<svg version="1.2" xmlns="http://www.w3.org/2000/svg" viewBox="0 0 127 146" width="127" height="146">
	<title>blob-1</title>
	<style>
		.s0 { fill: #fcd02c } 
	</style>
	<path class="s0" d="m106.2 12.8c10.1 5.4 17.3 16.4 19.5 27.8 2.1 11.4-0.8 23.1-2.2 35.3-1.4 12.2-1.3 24.8-6.4 35.8-5.1 11-15.3 20.4-28.1 26.8-12.8 6.4-28.2 9.8-40.5 5.1-12.3-4.8-21.4-17.6-25.8-30.3-4.4-12.7-4.1-25.4-8.6-38.9-4.5-13.6-13.9-28.1-13.4-41.8 0.4-13.7 10.8-26.6 24-30.6 13.2-4.1 29.3 0.8 43.8 3.1 14.5 2.4 27.6 2.2 37.7 7.7z"/>
</svg>