<svg version="1.2" xmlns="http://www.w3.org/2000/svg" viewBox="0 0 157 155" width="157" height="155">
	<title>blob-2</title>
	<style>
		.s0 { fill: #fcd02c } 
	</style>
	<path class="s0" d="m115 11.7c12.6 7.9 22 20.9 29.6 35.3 7.6 14.5 13.4 30.4 11 45-2.3 14.6-12.8 27.9-24.2 39.3-11.5 11.5-23.9 21.1-37.3 23.1-13.4 1.9-27.7-3.9-40.9-9.7-13.1-5.8-25-11.5-32.2-20.8-7.2-9.3-9.6-22.1-13.2-35.9-3.6-13.7-8.5-28.3-6.5-42.9 1.9-14.5 10.6-29 23.4-36.8 12.7-7.8 29.5-8.9 45.8-8.1 16.2 0.9 32 3.6 44.5 11.5z"/>
</svg>